<svg width="24" height="24" viewBox="0 0 24 24" fill="none" xmlns="http://www.w3.org/2000/svg">
<path d="M11.4 21H12.6C14.8402 21 15.9603 21 16.816 20.564C17.5686 20.1805 18.1805 19.5686 18.564 18.816C19 17.9603 19 16.8402 19 14.6V14V9.65097C19 8.6726 19 8.18342 18.8895 7.72307C18.7915 7.31493 18.6299 6.92475 18.4106 6.56686C18.1632 6.16319 17.8173 5.81729 17.1255 5.12549L17.1255 5.12548L16.8745 4.87452L16.8745 4.87451C16.1827 4.18271 15.8368 3.83681 15.4331 3.58944C15.0753 3.37012 14.6851 3.20851 14.2769 3.11052C13.8166 3 13.3274 3 12.349 3H11.4C9.15979 3 8.03969 3 7.18404 3.43597C6.43139 3.81947 5.81947 4.43139 5.43597 5.18404C5 6.03969 5 7.15979 5 9.4V14.6C5 16.8402 5 17.9603 5.43597 18.816C5.81947 19.5686 6.43139 20.1805 7.18404 20.564C8.03969 21 9.15979 21 11.4 21Z" stroke="#C0D4FB" stroke-width="2" stroke-linecap="round" stroke-linejoin="round"/>
<path d="M9 12L15 12" stroke="#C0D4FB" stroke-width="2" stroke-linecap="round" stroke-linejoin="round"/>
<path d="M9 16L12 16" stroke="#C0D4FB" stroke-width="2" stroke-linecap="round" stroke-linejoin="round"/>
<path d="M18 8H17.2C16.0799 8 15.5198 8 15.092 7.78201C14.7157 7.59027 14.4097 7.28431 14.218 6.90798C14 6.48016 14 5.92011 14 4.8V4" stroke="#C0D4FB" stroke-width="2" stroke-linecap="round" stroke-linejoin="round"/>
</svg>
