<svg height="2288" viewBox=".03 14.47 512 483.05" width="2500" xmlns="http://www.w3.org/2000/svg"><path d="m435.21 271.14c18.07-31.35 28.43-66.69 32.15-101.23h-55.27c-1.33 21.26-5.58 42.78-13.02 62.17-7.17 18.86-16.47 35.87-28.43 49.69-18.07 20.72-40.92 34.01-67.22 34.01-31.09 0-52.34-13.28-60.31-35.6h-58.98c-9.57 23.12-32.15 34.54-60.84 34.54-31.35 0-63.5-22.58-67.22-68.55h184.66c4.78-22.58 22.58-39.59 51.55-50.75 0 0 26.84-9.83 53.41-21.26 36.93-17 64.56-47.56 64.56-86.09 0-54.73-47.03-73.6-89.27-73.6-53.41 0-92.99 28.16-92.99 72.8 0 26.3 14.35 51.01 35.34 75.99-11.16 3.99-22.05 9.03-31.88 15.41-17-47.03-56.33-77.58-109.73-77.58-70.41 0-121.69 52.87-121.69 127.53s45.7 131.79 125.41 131.79c36.67 0 64.3-13.28 83.43-32.15 19.66 19.93 48.89 32.15 84.76 32.15 44.11 0 80.24-17.54 107.87-44.64l35.34 38.79h75.19l-76.79-83.43zm-113.98-214.94c20.19 0 36.93 11.43 36.93 34.01 0 20.72-12.49 40.92-40.65 53.41l-.53-.53c-16.47-17.54-32.15-37.73-32.15-57.13s17.27-29.76 36.4-29.76zm-199.54 87.68c32.15 0 61.64 23.38 63.24 62.17h-128.87c4.52-46.76 39.85-62.17 65.63-62.17zm-83.7 343.81c6.11 0 10.89-2.39 12.75-7.44h11.43c-2.39 8.5-10.36 17-23.91 17-16.74 0-26.57-13.02-26.57-27.9 0-15.94 10.89-27.1 25.77-27.1 16.21 0 26.04 13.02 25.24 30.82h-39.05c1.06 9.83 7.71 14.61 14.35 14.61zm13.02-23.12c-.27-8.24-6.64-13.28-13.28-13.28-5.58 0-13.02 3.19-13.82 13.28zm32.15-35.07v13.82h10.63v8.5h-10.63v28.7c0 5.31 1.33 6.64 6.11 6.64h4.25v8.77h-8.5c-11.16 0-13.55-2.92-13.55-13.82v-30.29h-7.71v-8.5h7.71v-13.82zm29.23 7.44h-11.69v-11.69h11.69zm0 58.99h-11.69v-52.61h11.69zm29.23-44.91c-5.05 0-9.83 2.13-9.83 5.85s2.66 5.31 6.91 6.38l7.44 1.59c10.63 2.13 18.6 5.31 18.6 15.68 0 10.89-10.36 17-22.32 17-12.75 0-21.52-7.44-22.58-17.27h11.43c1.06 5.31 5.05 8.5 11.69 8.5 6.11 0 10.63-2.66 10.63-6.91s-3.99-6.38-9.03-7.17l-7.97-1.59c-8.77-1.86-15.68-5.85-15.68-15.41s9.83-15.14 21.26-15.14c10.36 0 19.66 5.05 21.79 15.41h-10.89c-1.33-5.05-5.58-6.91-11.43-6.91zm63.23 12.22v-1.06c0-9.03-5.05-11.69-10.89-11.69s-10.36 3.19-10.63 9.57h-11.43c.8-10.63 9.57-18.07 22.32-18.07s22.32 5.85 22.05 22.58c0 2.66-.27 8.77-.27 13.55 0 6.64.53 13.55 1.59 18.07h-10.63c-.27-2.13-.8-3.45-1.06-7.17-3.19 5.58-9.57 8.5-17.27 8.5-11.43 0-19.4-6.11-19.4-15.68.53-13.55 16.47-16.74 35.6-18.6zm-22.85 18.07c0 4.52 3.72 7.44 9.57 7.44 8.5 0 13.55-4.52 13.55-13.28v-4.25c-16.47 1.59-23.12 3.99-23.12 10.1zm44.37 14.62v-70.68h11.69v70.68zm54.47-32.69v-1.06c0-9.03-5.05-11.69-10.89-11.69s-10.36 3.19-10.63 9.57h-11.43c.8-10.63 9.57-18.07 22.32-18.07s22.32 5.85 22.05 22.58c0 2.66-.27 8.77-.27 13.55 0 6.64.53 13.55 1.59 18.07h-10.63c-.27-2.13-.8-3.45-1.06-7.17-3.19 5.58-9.57 8.5-17.27 8.5-11.43 0-19.4-6.11-19.4-15.68.27-13.55 16.21-16.74 35.6-18.6zm-23.11 18.07c0 4.52 3.72 7.44 9.57 7.44 8.5 0 13.55-4.52 13.55-13.28v-4.25c-16.47 1.59-23.12 3.99-23.12 10.1zm57.39-51.81v13.82h10.63v8.5h-10.63v28.7c0 5.31 1.33 6.64 6.11 6.64h4.25v8.77h-8.5c-11.16 0-13.55-2.92-13.55-13.82v-30.29h-7.71v-8.5h7.71v-13.82zm72.27 33.74v-1.06c0-9.03-5.05-11.69-10.89-11.69s-10.36 3.19-10.63 9.57h-11.43c.8-10.63 9.57-18.07 22.32-18.07s22.32 5.85 22.05 22.58c0 2.66-.27 8.77-.27 13.55 0 6.64.53 13.55 1.59 18.07h-10.63c-.27-2.13-.8-3.45-1.06-7.17-3.19 5.58-9.57 8.5-17.27 8.5-11.43 0-19.4-6.11-19.4-15.68.27-13.55 16.47-16.74 35.6-18.6zm-22.85 18.07c0 4.52 3.72 7.44 9.57 7.44 8.5 0 13.55-4.52 13.55-13.28v-4.25c-16.47 1.59-23.12 3.99-23.12 10.1zm71.74-39.06c12.75 0 17.8 8.24 17.8 20.72v32.95h-11.43v-30.02c0-7.17-1.06-14.08-9.83-14.08s-12.22 6.91-12.22 16.21v27.9h-11.69v-52.61h11.69v7.44c2.92-5.58 8.5-8.5 15.68-8.5zm74.92-17v70.68h-11.69v-6.91c-3.19 5.05-8.5 8.24-15.68 8.24-12.49 0-22.85-10.63-22.85-27.63s10.36-27.37 22.85-27.37c6.91 0 12.49 2.92 15.68 8.24v-25.24h11.69zm-37.99 44.37c0 11.16 5.58 18.07 13.28 18.07s13.55-5.85 13.55-18.07-5.85-18.07-13.55-18.07c-7.71.27-13.28 7.17-13.28 18.07z" fill="#e00b14"/></svg>