<svg width="24" height="25" viewBox="0 0 24 25" fill="none" xmlns="http://www.w3.org/2000/svg">
<path d="M20.9379 13.2577L18.3042 16.4767L18.3042 16.4767C16.1437 19.1173 15.0635 20.4376 13.7649 20.9175C12.626 21.3385 11.374 21.3385 10.2351 20.9175C8.93653 20.4376 7.85627 19.1173 5.69577 16.4767L3.06211 13.2577C2.6604 12.7668 2.45955 12.5213 2.30654 12.2854C1.21363 10.6003 1.21363 8.43007 2.30654 6.74496C2.45955 6.50904 2.6604 6.26356 3.06209 5.7726L3.06211 5.77258L4.14545 4.44849C5.95011 2.2428 9.32262 2.2428 11.1273 4.44849C11.5784 4.99991 12.4216 4.99991 12.8727 4.44849C14.6774 2.2428 18.0499 2.2428 19.8545 4.44849L20.9379 5.77258L20.9379 5.77263C21.3396 6.26357 21.5405 6.50904 21.6935 6.74496C22.7864 8.43007 22.7864 10.6003 21.6935 12.2854C21.5404 12.5213 21.3396 12.7668 20.9379 13.2577Z" fill="#ED5E5E" stroke="#ED5E5E" stroke-width="2.54545" stroke-linejoin="round"/>
</svg>
