<svg width="24" height="24" viewBox="0 0 24 24" fill="none" xmlns="http://www.w3.org/2000/svg">
<path d="M20.9379 13.0759L18.3042 16.2948L18.3042 16.2948C16.1437 18.9354 15.0635 20.2558 13.7649 20.7357C12.626 21.1567 11.374 21.1567 10.2351 20.7357C8.93653 20.2558 7.85627 18.9354 5.69577 16.2948L3.06211 13.0759C2.6604 12.5849 2.45955 12.3395 2.30654 12.1035C1.21363 10.4184 1.21363 8.24824 2.30654 6.56314C2.45955 6.32722 2.6604 6.08174 3.06209 5.59078L3.06211 5.59076L4.14545 4.26667C5.95011 2.06097 9.32262 2.06097 11.1273 4.26667C11.5784 4.81809 12.4216 4.81809 12.8727 4.26667C14.6774 2.06097 18.0499 2.06098 19.8545 4.26667L20.9379 5.59076L20.9379 5.5908C21.3396 6.08174 21.5405 6.32722 21.6935 6.56314C22.7864 8.24824 22.7864 10.4184 21.6935 12.1035C21.5404 12.3395 21.3396 12.5849 20.9379 13.0759Z" stroke="#33384B" stroke-width="2" stroke-linejoin="round"/>
</svg>
