<svg width="24" height="24" viewBox="0 0 24 24" fill="none" xmlns="http://www.w3.org/2000/svg">
<path d="M4 11L7.47452 7.52548C9.05858 5.94142 9.85062 5.14938 10.7639 4.85263C11.5673 4.5916 12.4327 4.5916 13.2361 4.85263C14.1494 5.14938 14.9414 5.94142 16.5255 7.52548L20 11" stroke="#C0D4FB" stroke-width="2" stroke-linecap="round" stroke-linejoin="round"/>
<path d="M6 9V14C6 15.8638 6 16.7956 6.30448 17.5307C6.71046 18.5108 7.48915 19.2895 8.46927 19.6955C9.20435 20 10.1362 20 12 20V20C13.8638 20 14.7956 20 15.5307 19.6955C16.5108 19.2895 17.2895 18.5108 17.6955 17.5307C18 16.7956 18 15.8638 18 14V9" stroke="#C0D4FB" stroke-width="2" stroke-linecap="round" stroke-linejoin="round"/>
<path d="M10 19V16C10 15.6934 10 15.5401 10.0201 15.4119C10.1323 14.6948 10.6948 14.1323 11.4119 14.0201C11.5401 14 11.6934 14 12 14V14C12.3066 14 12.4599 14 12.5881 14.0201C13.3052 14.1323 13.8677 14.6948 13.9799 15.4119C14 15.5401 14 15.6934 14 16V19" stroke="#C0D4FB" stroke-width="2" stroke-linecap="round" stroke-linejoin="round"/>
</svg>
