<svg width="40" height="24" viewBox="0 0 40 24" fill="none" xmlns="http://www.w3.org/2000/svg">
<path fill-rule="evenodd" clip-rule="evenodd" d="M20.0001 21.1333C17.8817 22.9209 15.1338 24 12.1311 24C5.4313 24 0 18.6274 0 12C0 5.37258 5.4313 0 12.1311 0C15.1338 0 17.8817 1.07912 20.0001 2.8667C22.1184 1.07912 24.8663 0 27.869 0C34.5688 0 40.0001 5.37258 40.0001 12C40.0001 18.6274 34.5688 24 27.869 24C24.8663 24 22.1184 22.9209 20.0001 21.1333Z" fill="#ED0006"/>
<path fill-rule="evenodd" clip-rule="evenodd" d="M19.9998 21.1333C22.6081 18.9323 24.262 15.6572 24.262 12C24.262 8.34278 22.6081 5.06768 19.9998 2.86666C22.1181 1.07911 24.866 0 27.8686 0C34.5685 0 39.9998 5.37258 39.9998 12C39.9998 18.6274 34.5685 24 27.8686 24C24.866 24 22.1181 22.9209 19.9998 21.1333Z" fill="#F9A000"/>
<path fill-rule="evenodd" clip-rule="evenodd" d="M20 21.1335C22.6083 18.9325 24.2622 15.6574 24.2622 12.0002C24.2622 8.34304 22.6083 5.06796 20 2.86694C17.3917 5.06796 15.7378 8.34304 15.7378 12.0002C15.7378 15.6574 17.3917 18.9325 20 21.1335Z" fill="#FF5E00"/>
</svg>
