<svg width="24" height="24" viewBox="0 0 24 24" fill="none" xmlns="http://www.w3.org/2000/svg">
<path fill-rule="evenodd" clip-rule="evenodd" d="M1.29289 2.70711C0.902369 2.31658 0.902369 1.68342 1.29289 1.29289C1.68342 0.902369 2.31658 0.902369 2.70711 1.29289L21.7071 20.2929C22.0976 20.6834 22.0976 21.3166 21.7071 21.7071C21.3166 22.0976 20.6834 22.0976 20.2929 21.7071L16.8523 18.2665C13.7074 20.2815 9.60991 20.1517 6.58782 17.8771C6.08232 17.4967 5.56776 16.9821 4.69706 16.1113L4.56781 15.982C4.15504 15.5694 3.87387 15.2883 3.66195 15.0068C2.32183 13.2263 2.32183 10.7738 3.66195 8.99324C3.87386 8.71169 4.15501 8.43064 4.56777 8.01802L4.69706 7.88874C5.04376 7.542 5.33402 7.25172 5.5897 7.00391L1.29289 2.70711ZM7.00423 8.41844C6.75554 8.65932 6.44745 8.96679 6.04045 9.37379C5.54735 9.86688 5.37595 10.0418 5.25991 10.1959C4.45584 11.2643 4.45584 12.7358 5.25991 13.8041C5.37595 13.9582 5.54735 14.1331 6.04045 14.6262C7.00255 15.5883 7.41196 15.9943 7.79053 16.2792C10.0212 17.9581 13.0053 18.1346 15.3944 16.8086L14.1648 15.579C13.8231 15.7638 13.4468 15.8937 13.0475 15.9569C12.7734 16.0003 12.4657 16.0002 12.0757 16H11.9243C11.5343 16.0002 11.2266 16.0003 10.9525 15.9569C9.45486 15.7197 8.2803 14.5452 8.0431 13.0475C7.99968 12.7734 7.99981 12.4657 7.99998 12.0757V11.9243C7.99981 11.5343 7.99968 11.2266 8.0431 10.9525C8.10633 10.5532 8.23619 10.1769 8.42103 9.83524L7.00423 8.41844ZM10.0054 11.4196C10.0011 11.5276 10 11.697 10 12C10 12.5027 10.0031 12.6377 10.0185 12.7347C10.1201 13.3765 10.6235 13.8799 11.2654 13.9815C11.3624 13.9969 11.4973 14 12 14C12.303 14 12.4724 13.9989 12.5804 13.9946L10.0054 11.4196Z" fill="#B2BCC9"/>
<path d="M8.96237 4.84105L10.5802 6.45889C12.5056 6.0608 14.5628 6.48146 16.2095 7.72084C16.5881 8.00578 16.9975 8.41169 17.9596 9.37379C18.4527 9.86688 18.6241 10.0418 18.7401 10.1959C19.5442 11.2643 19.5442 12.7358 18.7401 13.8041C18.6624 13.9073 18.5598 14.0199 18.3524 14.2311L19.7669 15.6456C20.006 15.4023 20.1891 15.2047 20.3381 15.0068C21.6782 13.2263 21.6782 10.7738 20.3381 8.99324C20.1262 8.71169 19.845 8.43064 19.4323 8.01804L19.303 7.88875C18.4323 7.01801 17.9177 6.50333 17.4122 6.12288C14.9446 4.26561 11.7599 3.83834 8.96237 4.84105Z" fill="#B2BCC9"/>
<path d="M12.1213 7.99997L16 11.8787C16.0001 11.5102 15.9986 11.2159 15.9569 10.9525C15.7197 9.45487 14.5452 8.2803 13.0475 8.0431C12.7841 8.00139 12.4898 7.99987 12.1213 7.99997Z" fill="#B2BCC9"/>
</svg>
