<svg width="48" height="48" viewBox="0 0 48 48" fill="none" xmlns="http://www.w3.org/2000/svg">
<path d="M23.2041 5.46387C23.7117 5.24374 24.2883 5.24374 24.7959 5.46387C25.0089 5.55628 25.2667 5.74908 26.4346 6.76367C26.9209 7.18619 27.3375 7.55799 27.8135 7.8457C28.6025 8.32253 29.4916 8.61146 30.4102 8.68945C30.9643 8.73645 31.5203 8.68095 32.1621 8.625C33.7035 8.49063 34.0253 8.48566 34.252 8.53613C34.7919 8.65648 35.2578 8.99531 35.5391 9.47168C35.6571 9.6716 35.7521 9.97898 36.1006 11.4863C36.2457 12.1142 36.365 12.6602 36.5811 13.1729C36.939 14.0222 37.4874 14.7779 38.1846 15.3809C38.6052 15.7447 39.0876 16.0264 39.6396 16.3584C40.966 17.1559 41.2291 17.3416 41.3828 17.5156C41.7489 17.9303 41.9274 18.4777 41.875 19.0283C41.853 19.2595 41.7488 19.5645 41.1445 20.9893C40.893 21.5824 40.6685 22.0941 40.542 22.6357C40.3324 23.5332 40.3324 24.4668 40.542 25.3643C40.6685 25.9059 40.893 26.4176 41.1445 27.0107C41.7488 28.4355 41.853 28.7405 41.875 28.9717C41.9274 29.5223 41.7489 30.0697 41.3828 30.4844C41.2291 30.6584 40.966 30.8441 39.6396 31.6416C39.0876 31.9736 38.6053 32.2553 38.1846 32.6191C37.4874 33.2221 36.939 33.9778 36.5811 34.8271C36.365 35.3398 36.2457 35.8858 36.1006 36.5137C35.7521 38.021 35.6571 38.3284 35.5391 38.5283C35.2578 39.0047 34.7919 39.3435 34.252 39.4639C34.0254 39.5143 33.7035 39.5094 32.1621 39.375C31.5203 39.3191 30.9643 39.2636 30.4102 39.3105C29.4916 39.3885 28.6025 39.6775 27.8135 40.1543C27.3375 40.442 26.9209 40.8138 26.4346 41.2363C25.2667 42.2509 25.0089 42.4437 24.7959 42.5361C24.2883 42.7563 23.7117 42.7563 23.2041 42.5361C22.9911 42.4437 22.7333 42.2509 21.5654 41.2363C21.0791 40.8138 20.6625 40.442 20.1865 40.1543C19.3975 39.6775 18.5084 39.3885 17.5898 39.3105C17.0357 39.2636 16.4797 39.3191 15.8379 39.375C14.2965 39.5094 13.9746 39.5143 13.748 39.4639C13.2081 39.3435 12.7422 39.0047 12.4609 38.5283C12.3429 38.3284 12.2479 38.021 11.8994 36.5137C11.7543 35.8858 11.635 35.3398 11.4189 34.8271C11.061 33.9778 10.5125 33.2221 9.81543 32.6191C9.39475 32.2553 8.91243 31.9736 8.36035 31.6416C7.03401 30.8441 6.77086 30.6584 6.61719 30.4844C6.25109 30.0697 6.07264 29.5223 6.125 28.9717C6.14703 28.7405 6.2512 28.4355 6.85547 27.0107C7.10703 26.4176 7.33149 25.9059 7.45801 25.3643C7.66755 24.4668 7.66755 23.5332 7.45801 22.6357C7.33149 22.0941 7.10703 21.5824 6.85547 20.9893C6.2512 19.5645 6.14703 19.2595 6.125 19.0283C6.07264 18.4777 6.25109 17.9303 6.61719 17.5156C6.77086 17.3416 7.03402 17.1559 8.36035 16.3584C8.91243 16.0264 9.39475 15.7447 9.81543 15.3809C10.5125 14.7779 11.061 14.0222 11.4189 13.1729C11.635 12.6602 11.7543 12.1142 11.8994 11.4863C12.2479 9.97898 12.3429 9.6716 12.4609 9.47168C12.7422 8.99531 13.2081 8.65648 13.748 8.53613C13.9747 8.48566 14.2965 8.49063 15.8379 8.625C16.4797 8.68095 17.0357 8.73645 17.5898 8.68945C18.5084 8.61146 19.3975 8.32253 20.1865 7.8457C20.6625 7.55799 21.0791 7.18618 21.5654 6.76367C22.7333 5.74908 22.9911 5.55628 23.2041 5.46387Z" stroke="#2E6FF3" stroke-width="4"/>
<path d="M14 26L17.7373 29.7373C18.5293 30.5293 18.9253 30.9253 19.382 31.0737C19.7837 31.2042 20.2163 31.2042 20.618 31.0737C21.0747 30.9253 21.4707 30.5293 22.2627 29.7373L33 19" stroke="#2E6FF3" stroke-width="4" stroke-linecap="round" stroke-linejoin="round"/>
</svg>
