<svg width="16" height="16" viewBox="0 0 16 16" fill="none" xmlns="http://www.w3.org/2000/svg">
<path d="M6.66592 4.61076C7.07794 3.49562 7.28394 2.93805 7.58421 2.77914C7.84432 2.64149 8.15568 2.64149 8.41578 2.77914C8.71606 2.93805 8.92206 3.49562 9.33408 4.61076L9.54519 5.18214C9.66893 5.51707 9.73081 5.68454 9.83887 5.80801C9.93433 5.91707 10.055 6.00113 10.1904 6.05288C10.3437 6.11146 10.5222 6.11146 10.8793 6.11146H11.7955C13.0788 6.11146 13.7204 6.11146 13.976 6.348C14.1971 6.55265 14.2995 6.85535 14.248 7.15219C14.1885 7.49531 13.6786 7.88482 12.6589 8.66385L11.8441 9.2863C11.56 9.50334 11.4179 9.61185 11.3316 9.75163C11.2554 9.87509 11.2106 10.0153 11.2011 10.1601C11.1903 10.324 11.2431 10.4948 11.3486 10.8364L11.6306 11.7487C12.0285 13.0367 12.2275 13.6806 12.0715 13.9977C11.9367 14.2719 11.6705 14.4576 11.3667 14.4894C11.0152 14.5263 10.4796 14.1171 9.40836 13.2988L8.86338 12.8825C8.55418 12.6463 8.39958 12.5282 8.22933 12.4827C8.07907 12.4426 7.92092 12.4426 7.77067 12.4827C7.60042 12.5282 7.44582 12.6463 7.13662 12.8825L6.59164 13.2988C5.52044 14.1171 4.98483 14.5263 4.63334 14.4894C4.32949 14.4576 4.0633 14.2719 3.92845 13.9977C3.77246 13.6806 3.97145 13.0367 4.36944 11.7487L4.65137 10.8364C4.75693 10.4948 4.8097 10.324 4.79891 10.1601C4.78938 10.0153 4.74456 9.87509 4.66835 9.75163C4.58208 9.61185 4.44003 9.50334 4.15593 9.2863L3.34113 8.66385C2.32137 7.88482 1.81148 7.49531 1.75199 7.15219C1.70053 6.85535 1.80292 6.55265 2.02402 6.348C2.27958 6.11146 2.92123 6.11146 4.20451 6.11146H5.12074C5.4778 6.11146 5.65633 6.11146 5.8096 6.05288C5.94498 6.00113 6.06567 5.91707 6.16113 5.80801C6.26919 5.68454 6.33106 5.51707 6.45481 5.18214L6.66592 4.61076Z" fill="#F9E000" stroke="#EED600" stroke-linejoin="round"/>
</svg>
