<svg width="68" height="24" viewBox="0 0 68 24" fill="none" xmlns="http://www.w3.org/2000/svg">
<path fill-rule="evenodd" clip-rule="evenodd" d="M17.0007 23.8133H11.1158L6.70273 5.19476C6.49327 4.3383 6.04853 3.58115 5.39432 3.2243C3.76168 2.3275 1.96262 1.6138 0 1.25384V0.537024H9.48024C10.7886 0.537024 11.77 1.6138 11.9335 2.86434L14.2232 16.2945L20.1053 0.537024H25.8268L17.0007 23.8133ZM29.0979 23.8133H23.54L28.1166 0.537024H33.6745L29.0979 23.8133ZM40.8649 6.98505C41.0285 5.7314 42.0098 5.01459 43.1547 5.01459C44.9537 4.83461 46.9135 5.19457 48.549 6.08826L49.5303 1.07677C47.8948 0.359958 46.0957 0 44.4631 0C39.0687 0 35.1435 3.22411 35.1435 7.69876C35.1435 11.1028 37.9239 12.8902 39.8865 13.967C42.0098 15.0407 42.8275 15.7575 42.664 16.8311C42.664 18.4416 41.0285 19.1585 39.3958 19.1585C37.4332 19.1585 35.4706 18.6216 33.6744 17.7248L32.6931 22.7394C34.6557 23.6331 36.779 23.9931 38.7416 23.9931C44.7902 24.1699 48.549 20.9489 48.549 16.1143C48.549 10.0261 40.8649 9.66922 40.8649 6.98505ZM68.0001 23.8133L63.587 0.537024H58.8469C57.8656 0.537024 56.8843 1.25384 56.5572 2.3275L48.3854 23.8133H54.1068L55.2488 20.4123H62.2786L62.9328 23.8133H68.0001ZM59.6646 6.80503L61.2973 15.5775H56.7207L59.6646 6.80503Z" fill="#172B85"/>
</svg>
