<svg width="24" height="24" viewBox="0 0 24 24" fill="none" xmlns="http://www.w3.org/2000/svg">
<path d="M16.8108 17.0781C17.2597 16.7403 17.7287 16.2713 18.6667 15.3333C19.1357 14.8643 19.3702 14.6298 19.5391 14.4054C20.6112 12.981 20.6112 11.019 19.5391 9.59458C19.3702 9.37018 19.1357 9.13568 18.6667 8.66668L18.6667 8.66667C17.7287 7.72866 17.2597 7.25965 16.8108 6.92185C13.962 4.77766 10.038 4.77766 7.18916 6.92185C6.74035 7.25965 6.27134 7.72866 5.33333 8.66667C4.86433 9.13567 4.62982 9.37017 4.46092 9.59458C3.38883 11.019 3.38883 12.981 4.46092 14.4054C4.62982 14.6298 4.86433 14.8643 5.33333 15.3333L5.33334 15.3333C6.27135 16.2713 6.74035 16.7404 7.18916 17.0781C10.038 19.2223 13.962 19.2223 16.8108 17.0781Z" stroke="#B2BCC9" stroke-width="1.5" stroke-linecap="round" stroke-linejoin="round"/>
<rect x="9" y="9" width="6" height="6" rx="2.5" stroke="#B2BCC9" stroke-width="1.5" stroke-linecap="round" stroke-linejoin="round"/>
</svg>
